<svg xmlns="http://www.w3.org/2000/svg">

	<symbol id="menu" viewBox="0 0 100 100">
		<rect x="00" y="30" width="100" height="8"></rect>
		<rect x="30" y="62" width="070" height="8"></rect>
	</symbol>

	<symbol id="back" viewBox="0 0 20 20">
		<path d="M8.388,10.049l4.76-4.873c0.303-0.31,0.297-0.804-0.012-1.105c-0.309-0.304-0.803-0.293-1.105,0.012L6.726,9.516c-0.303,0.31-0.296,0.805,0.012,1.105l5.433,5.307c0.152,0.148,0.35,0.223,0.547,0.223c0.203,0,0.406-0.08,0.559-0.236c0.303-0.309,0.295-0.803-0.012-1.104L8.388,10.049z"></path>
	</symbol>

	<symbol id="search" viewBox="0 0 20 20">
		<path d="M18.125,15.804l-4.038-4.037c0.675-1.079,1.012-2.308,1.01-3.534C15.089,4.62,12.199,1.75,8.584,1.75C4.815,1.75,1.982,4.726,2,8.286c0.021,3.577,2.908,6.549,6.578,6.549c1.241,0,2.417-0.347,3.44-0.985l4.032,4.026c0.167,0.166,0.43,0.166,0.596,0l1.479-1.478C18.292,16.234,18.292,15.968,18.125,15.804 M8.578,13.99c-3.198,0-5.716-2.593-5.733-5.71c-0.017-3.084,2.438-5.686,5.74-5.686c3.197,0,5.625,2.493,5.64,5.624C14.242,11.548,11.621,13.99,8.578,13.99 M16.349,16.981l-3.637-3.635c0.131-0.11,0.721-0.695,0.876-0.884l3.642,3.639L16.349,16.981z"></path>
	</symbol>

	<symbol id="user" viewBox="0 0 20 20">
		<path d="M12.075,10.812c1.358-0.853,2.242-2.507,2.242-4.037c0-2.181-1.795-4.618-4.198-4.618S5.921,4.594,5.921,6.775c0,1.53,0.884,3.185,2.242,4.037c-3.222,0.865-5.6,3.807-5.6,7.298c0,0.23,0.189,0.42,0.42,0.42h14.273c0.23,0,0.42-0.189,0.42-0.42C17.676,14.619,15.297,11.677,12.075,10.812 M6.761,6.775c0-2.162,1.773-3.778,3.358-3.778s3.359,1.616,3.359,3.778c0,2.162-1.774,3.778-3.359,3.778S6.761,8.937,6.761,6.775 M3.415,17.69c0.218-3.51,3.142-6.297,6.704-6.297c3.562,0,6.486,2.787,6.705,6.297H3.415z"></path>
	</symbol>

	<symbol id="home" viewBox="0 0 20 20">
		<!-- <path d="M18.121,9.88l-7.832-7.836c-0.155-0.158-0.428-0.155-0.584,0L1.842,9.913c-0.262,0.263-0.073,0.705,0.292,0.705h2.069v7.042c0,0.227,0.187,0.414,0.414,0.414h3.725c0.228,0,0.414-0.188,0.414-0.414v-3.313h2.483v3.313c0,0.227,0.187,0.414,0.413,0.414h3.726c0.229,0,0.414-0.188,0.414-0.414v-7.042h2.068h0.004C18.331,10.617,18.389,10.146,18.121,9.88 M14.963,17.245h-2.896v-3.313c0-0.229-0.186-0.415-0.414-0.415H8.342c-0.228,0-0.414,0.187-0.414,0.415v3.313H5.032v-6.628h9.931V17.245z M3.133,9.79l6.864-6.868l6.867,6.868H3.133z"></path> -->
		<path d="M18.121,9.88l-7.832-7.836c-0.155-0.158-0.428-0.155-0.584,0L1.842,9.913c-0.262,0.263-0.073,0.705,0.292,0.705h2.069v7.042c0,0.227,0.187,0.414,0.414,0.414h3.725c0.228,0,0.414-0.188,0.414-0.414v-3.313h2.483v3.313c0,0.227,0.187,0.414,0.413,0.414h3.726c0.229,0,0.414-0.188,0.414-0.414v-7.042h2.068h0.004C18.331,10.617,18.389,10.146,18.121,9.88"></path>
	</symbol>

	<symbol id="message" viewBox="0 0 20 20">
		<path d="M17.211,3.39H2.788c-0.22,0-0.4,0.18-0.4,0.4v9.614c0,0.221,0.181,0.402,0.4,0.402h3.206v2.402c0,0.363,0.429,0.533,0.683,0.285l2.72-2.688h7.814c0.221,0,0.401-0.182,0.401-0.402V3.79C17.612,3.569,17.432,3.39,17.211,3.39"></path>
	</symbol>

	<symbol id="logout" viewBox="0 0 16 16">
		<path d="M1.5 15a.5.5 0 0 0 0 1h13a.5.5 0 0 0 0-1H13V2.5A1.5 1.5 0 0 0 11.5 1H11V.5a.5.5 0 0 0-.57-.495l-7 1A.5.5 0 0 0 3 1.5V15H1.5zM11 2h.5a.5.5 0 0 1 .5.5V15h-1V2zm-2.5 8c-.276 0-.5-.448-.5-1s.224-1 .5-1 .5.448.5 1-.224 1-.5 1z"/>
	</symbol>

	<symbol id="categories" viewBox="0 0 20 20">
		<path d="M17.927,5.828h-4.41l-1.929-1.961c-0.078-0.079-0.186-0.125-0.297-0.125H4.159c-0.229,0-0.417,0.188-0.417,0.417v1.669H2.073c-0.229,0-0.417,0.188-0.417,0.417v9.596c0,0.229,0.188,0.417,0.417,0.417h15.854c0.229,0,0.417-0.188,0.417-0.417V6.245C18.344,6.016,18.156,5.828,17.927,5.828"></path>
	</symbol>

	<symbol id="book" viewBox="0 0 16 16">
		<path d="M8 1.783C7.015.936 5.587.81 4.287.94c-1.514.153-3.042.672-3.994 1.105A.5.5 0 0 0 0 2.5v11a.5.5 0 0 0 .707.455c.882-.4 2.303-.881 3.68-1.02 1.409-.142 2.59.087 3.223.877a.5.5 0 0 0 .78 0c.633-.79 1.814-1.019 3.222-.877 1.378.139 2.8.62 3.681 1.02A.5.5 0 0 0 16 13.5v-11a.5.5 0 0 0-.293-.455c-.952-.433-2.48-.952-3.994-1.105C10.413.809 8.985.936 8 1.783z"/>
	</symbol>

</svg>
